<svg width="1024" height="1440" viewBox="0 0 1024 1440" fill="none" xmlns="http://www.w3.org/2000/svg">
<rect x="0.5" y="0.5" width="1023" height="1439" fill="white"/>
<g clip-path="url(#clip0)">
<path d="M786.588 1371.55H785.523V1389H786.588V1371.55ZM799.063 1371.55H798.023V1389H799.063V1371.55ZM803.418 1389H804.45V1375.91H803.418V1389ZM803.938 1373.59C804.398 1373.59 804.773 1373.22 804.773 1372.77C804.773 1372.32 804.398 1371.95 803.938 1371.95C803.478 1371.95 803.094 1372.32 803.094 1372.77C803.094 1373.22 803.478 1373.59 803.938 1373.59ZM808.805 1389H809.844V1383.76L811.438 1382.22L816.808 1389H818.137L812.197 1381.53L817.864 1375.91H816.509L809.964 1382.39H809.844V1371.55H808.805V1389ZM825.511 1389.27C828.094 1389.27 829.679 1387.76 830.276 1386.44L829.33 1386.06C828.844 1387.03 827.642 1388.31 825.511 1388.31C822.537 1388.31 820.756 1385.91 820.713 1382.68H830.702V1382.04C830.702 1378.15 828.196 1375.71 825.264 1375.71C822.017 1375.71 819.682 1378.6 819.682 1382.51C819.682 1386.42 821.957 1389.27 825.511 1389.27ZM820.73 1381.74C820.935 1378.88 822.784 1376.68 825.264 1376.68C827.753 1376.68 829.662 1378.9 829.662 1381.74H820.73ZM843.886 1389H845.045L848.386 1377.61H848.497L851.838 1389H852.997L856.918 1375.91H855.827L852.452 1387.47H852.366L848.991 1375.91H847.909L844.526 1387.47H844.432L841.057 1375.91H839.966L843.886 1389ZM861.196 1380.51C861.196 1378.23 862.79 1376.7 864.997 1376.7C867.179 1376.7 868.628 1378.17 868.628 1380.41V1389H869.659V1380.37C869.659 1377.49 867.835 1375.74 865.193 1375.74C863.301 1375.74 861.912 1376.62 861.298 1377.98H861.196V1371.55H860.156V1389H861.196V1380.51ZM874.012 1389H875.043V1375.91H874.012V1389ZM874.532 1373.59C874.992 1373.59 875.367 1373.22 875.367 1372.77C875.367 1372.32 874.992 1371.95 874.532 1371.95C874.072 1371.95 873.688 1372.32 873.688 1372.77C873.688 1373.22 874.072 1373.59 874.532 1373.59ZM884.026 1375.91H881.273V1372.77H880.242V1375.91H878.308V1376.84H880.242V1386.09C880.242 1388.08 881.785 1389.21 883.421 1389.21C883.95 1389.21 884.308 1389.12 884.631 1389L884.376 1388.05C884.12 1388.14 883.864 1388.21 883.489 1388.21C882.33 1388.21 881.273 1387.49 881.273 1385.91V1376.84H884.026V1375.91ZM892.847 1389.27C895.43 1389.27 897.015 1387.76 897.612 1386.44L896.665 1386.06C896.18 1387.03 894.978 1388.31 892.847 1388.31C889.873 1388.31 888.092 1385.91 888.049 1382.68H898.038V1382.04C898.038 1378.15 895.532 1375.71 892.6 1375.71C889.353 1375.71 887.018 1378.6 887.018 1382.51C887.018 1386.42 889.293 1389.27 892.847 1389.27ZM888.066 1381.74C888.271 1378.88 890.12 1376.68 892.6 1376.68C895.089 1376.68 896.998 1378.9 896.998 1381.74H888.066ZM916.685 1378.73C916.055 1376.8 914.674 1375.71 912.458 1375.71C909.952 1375.71 908.154 1377.16 908.154 1379.28C908.154 1380.96 909.219 1382.15 911.359 1382.67L913.447 1383.18C915.006 1383.56 915.782 1384.41 915.782 1385.62C915.782 1387.2 914.35 1388.32 912.211 1388.32C910.276 1388.32 909.075 1387.41 908.7 1385.7L907.702 1385.96C908.154 1388.09 909.782 1389.27 912.219 1389.27C914.947 1389.27 916.839 1387.76 916.839 1385.58C916.839 1383.89 915.782 1382.73 913.719 1382.22L911.708 1381.71C910.004 1381.3 909.185 1380.49 909.185 1379.24C909.185 1377.71 910.532 1376.66 912.458 1376.66C914.248 1376.66 915.245 1377.55 915.722 1378.99L916.685 1378.73ZM920.395 1393.91H921.426V1386.14H921.528C922.134 1387.84 923.531 1389.27 925.756 1389.27C928.892 1389.27 930.972 1386.44 930.972 1382.49C930.972 1378.53 928.909 1375.71 925.747 1375.71C923.489 1375.71 922.151 1377.15 921.528 1378.83H921.409V1375.91H920.395V1393.91ZM921.418 1382.48C921.418 1379.14 922.994 1376.68 925.67 1376.68C928.372 1376.68 929.94 1379.19 929.94 1382.48C929.94 1385.77 928.347 1388.31 925.67 1388.31C923.02 1388.31 921.418 1385.83 921.418 1382.48ZM938.039 1389.28C940.119 1389.28 941.585 1388.11 942.266 1386.64H942.343V1389H943.383V1379.86C943.383 1376.99 941.252 1375.71 938.925 1375.71C936.906 1375.71 935.013 1376.62 934.263 1378.51L935.244 1378.88C935.755 1377.58 937.085 1376.67 938.951 1376.67C941.065 1376.67 942.343 1377.89 942.343 1379.79V1380.33C942.343 1381.34 940.877 1381.44 938.883 1381.68C935.388 1382.11 933.888 1383.21 933.888 1385.39C933.888 1387.88 935.781 1389.28 938.039 1389.28ZM938.141 1388.32C936.309 1388.32 934.928 1387.22 934.928 1385.43C934.928 1383.81 936.121 1382.94 938.985 1382.6C940.263 1382.45 941.798 1382.22 942.343 1381.76V1383.69C942.343 1386.35 940.596 1388.32 938.141 1388.32ZM952.651 1389.27C955.208 1389.27 957.134 1387.6 957.509 1385.18H956.452C956.112 1387.08 954.569 1388.31 952.651 1388.31C949.915 1388.31 948.049 1385.81 948.049 1382.48C948.049 1379.11 949.992 1376.68 952.651 1376.68C954.62 1376.68 956.094 1378 956.427 1379.76H957.484C957.1 1377.35 955.123 1375.71 952.643 1375.71C949.327 1375.71 947.018 1378.61 947.018 1382.5C947.018 1386.38 949.31 1389.27 952.651 1389.27ZM966.16 1389.27C968.742 1389.27 970.327 1387.76 970.924 1386.44L969.978 1386.06C969.492 1387.03 968.29 1388.31 966.16 1388.31C963.185 1388.31 961.404 1385.91 961.362 1382.68H971.35V1382.04C971.35 1378.15 968.844 1375.71 965.913 1375.71C962.665 1375.71 960.33 1378.6 960.33 1382.51C960.33 1386.42 962.606 1389.27 966.16 1389.27ZM961.379 1381.74C961.583 1378.88 963.433 1376.68 965.913 1376.68C968.401 1376.68 970.31 1378.9 970.31 1381.74H961.379ZM975.901 1389.11C976.404 1389.11 976.822 1388.7 976.822 1388.19C976.822 1387.69 976.404 1387.27 975.901 1387.27C975.39 1387.27 974.981 1387.69 974.981 1388.19C974.981 1388.7 975.39 1389.11 975.901 1389.11Z" fill="black"/>
<path d="M53.7635 1394.46C55.125 1394.46 56.7102 1394.05 57.6499 1393.54L57.3239 1392.64C56.6335 1393.02 55.2017 1393.51 53.7955 1393.51C49.5703 1393.51 46.9496 1390.74 46.9496 1386.43C46.9496 1382.18 49.6023 1379.34 53.5909 1379.34C57.6051 1379.34 59.951 1382.38 59.951 1385.7C59.951 1388.34 59.3629 1389.73 57.9695 1389.73C57.2024 1389.73 56.8636 1389.2 56.8636 1388.31V1382.38H55.8217V1383.54H55.7578C55.4318 1382.74 54.3771 1382.12 53.0732 1382.2C51.1172 1382.34 49.6087 1384.03 49.6087 1386.35C49.6087 1388.75 50.9126 1390.62 53.0732 1390.67C54.4922 1390.71 55.3999 1389.95 55.8089 1389.02H55.8729C55.9751 1390.24 57.017 1390.67 57.9567 1390.67C60.3665 1390.67 60.9737 1388.14 60.9737 1385.71C60.9737 1381.9 58.2124 1378.4 53.642 1378.4C48.9631 1378.4 45.8757 1381.59 45.8757 1386.4C45.8757 1391.31 48.8928 1394.46 53.7635 1394.46ZM53.2074 1389.67C51.5135 1389.67 50.6314 1388.09 50.6314 1386.3C50.6314 1384.6 51.6797 1383.18 53.2393 1383.18C54.8501 1383.18 55.8729 1384.15 55.8729 1386.3C55.8729 1388.42 54.9396 1389.67 53.2074 1389.67ZM63.3404 1394.68H64.4846V1389.18H64.5868C64.9767 1390.08 65.8205 1391.2 67.6039 1391.2C70.0073 1391.2 71.6436 1389.16 71.6436 1386.12C71.6436 1383.09 70.0137 1381.05 67.5847 1381.05C65.7821 1381.05 64.9831 1382.17 64.5868 1383.05H64.4462V1381.18H63.3404V1394.68ZM64.4654 1386.1C64.4654 1383.75 65.5456 1382.08 67.4632 1382.08C69.4384 1382.08 70.4995 1383.83 70.4995 1386.1C70.4995 1388.39 69.4192 1390.16 67.4632 1390.16C65.5648 1390.16 64.4654 1388.47 64.4654 1386.1ZM75.2727 1377.91H74.1349V1391H75.2727V1377.91ZM78.2962 1391H79.4403V1381.18H78.2962V1391ZM78.8778 1379.49C79.3445 1379.49 79.7344 1379.12 79.7344 1378.68C79.7344 1378.23 79.3445 1377.86 78.8778 1377.86C78.4112 1377.86 78.0277 1378.23 78.0277 1378.68C78.0277 1379.12 78.4112 1379.49 78.8778 1379.49ZM82.6859 1391H83.7917V1389.18H83.9324C84.3287 1390.08 85.1596 1391.2 86.9494 1391.2C89.3592 1391.2 90.9892 1389.17 90.9892 1386.12C90.9892 1383.09 89.3528 1381.05 86.9302 1381.05C85.1341 1381.05 84.3223 1382.17 83.9324 1383.05H83.8301V1377.91H82.6859V1391ZM83.8109 1386.1C83.8109 1383.75 84.8912 1382.08 86.8088 1382.08C88.7775 1382.08 89.845 1383.83 89.845 1386.1C89.845 1388.39 88.7647 1390.16 86.8088 1390.16C84.9039 1390.16 83.8109 1388.47 83.8109 1386.1ZM93.5012 1391H94.6454V1381.18H93.5012V1391ZM94.0829 1379.49C94.5495 1379.49 94.9395 1379.12 94.9395 1378.68C94.9395 1378.23 94.5495 1377.86 94.0829 1377.86C93.6163 1377.86 93.2328 1378.23 93.2328 1378.68C93.2328 1379.12 93.6163 1379.49 94.0829 1379.49ZM101.522 1381.18H99.4442V1378.83H98.3001V1381.18H96.8363V1382.17H98.3001V1388.71C98.3001 1390.31 99.5657 1391.15 100.825 1391.15C101.298 1391.15 101.618 1391.06 101.835 1390.97L101.592 1389.95C101.432 1389.99 101.228 1390.03 100.927 1390.03C100.154 1390.03 99.4442 1389.67 99.4442 1388.44V1382.17H101.522V1381.18ZM105.454 1384.86C105.454 1383.15 106.605 1382.1 108.177 1382.1C109.699 1382.1 110.67 1383.09 110.67 1384.71V1391H111.814V1384.64C111.814 1382.3 110.459 1381.05 108.465 1381.05C106.982 1381.05 106.017 1381.71 105.557 1382.72H105.454V1377.91H104.317V1391H105.454V1384.86ZM118.78 1391.2C120.749 1391.2 122.072 1390.14 122.52 1388.9L121.439 1388.55C121.062 1389.43 120.174 1390.16 118.78 1390.16C116.773 1390.16 115.501 1388.7 115.45 1386.43H122.762V1385.87C122.762 1382.59 120.736 1381.05 118.608 1381.05C116.064 1381.05 114.306 1383.18 114.306 1386.15C114.306 1389.13 116.032 1391.2 118.78 1391.2ZM115.456 1385.43C115.578 1383.6 116.811 1382.08 118.608 1382.08C120.365 1382.08 121.599 1383.53 121.599 1385.43H115.456ZM125.27 1391H126.407V1384.66C126.407 1383.2 127.526 1382.15 129.06 1382.15C129.361 1382.15 129.642 1382.2 129.744 1382.21V1381.05C129.591 1381.05 129.329 1381.03 129.143 1381.03C127.91 1381.03 126.855 1381.7 126.459 1382.69H126.376V1381.18H125.27V1391ZM135.687 1391.18C138.18 1391.18 140.002 1389.63 140.008 1387.55C140.002 1385.93 138.883 1384.51 137.4 1384.22V1384.15C138.679 1383.78 139.535 1382.56 139.542 1381.16C139.535 1379.2 137.867 1377.73 135.687 1377.73C133.488 1377.73 131.826 1379.21 131.839 1381.16C131.826 1382.56 132.689 1383.78 133.974 1384.15V1384.22C132.478 1384.51 131.36 1385.93 131.366 1387.55C131.36 1389.63 133.181 1391.18 135.687 1391.18ZM135.687 1390.11C133.814 1390.11 132.536 1389.01 132.542 1387.5C132.536 1385.93 133.885 1384.75 135.687 1384.75C137.477 1384.75 138.826 1385.93 138.832 1387.5C138.826 1389.01 137.554 1390.11 135.687 1390.11ZM135.687 1383.73C134.147 1383.73 132.99 1382.67 132.996 1381.23C132.99 1379.79 134.121 1378.78 135.687 1378.78C137.24 1378.78 138.372 1379.79 138.385 1381.23C138.372 1382.67 137.215 1383.73 135.687 1383.73Z" fill="black"/>
<path d="M151.535 1391.2C153.964 1391.2 155.728 1389.07 155.728 1386.12C155.728 1383.18 153.957 1381.03 151.535 1381.03C149.106 1381.03 147.341 1383.17 147.341 1386.12C147.341 1389.07 149.106 1391.2 151.535 1391.2ZM151.535 1390.48C149.47 1390.48 148.115 1388.56 148.115 1386.12C148.115 1383.7 149.483 1381.76 151.535 1381.76C153.593 1381.76 154.954 1383.69 154.954 1386.12C154.954 1388.56 153.599 1390.48 151.535 1390.48ZM159.194 1384.63C159.194 1382.92 160.383 1381.78 162.019 1381.78C163.649 1381.78 164.729 1382.88 164.729 1384.56V1391H165.509V1384.52C165.509 1382.38 164.141 1381.05 162.166 1381.05C160.766 1381.05 159.712 1381.72 159.251 1382.74H159.175V1381.18H158.414V1391H159.194V1384.63ZM173.812 1391H174.592V1384.56C174.592 1382.93 175.57 1381.78 177.124 1381.78C178.664 1381.78 179.425 1382.83 179.425 1384.36V1391H180.205V1384.47C180.205 1382.91 181.099 1381.78 182.723 1381.78C184.238 1381.78 185.037 1382.77 185.037 1384.41V1391H185.817V1384.41C185.817 1382.33 184.788 1381.05 182.889 1381.05C181.432 1381.05 180.403 1381.8 180.019 1382.95H179.949C179.565 1381.79 178.702 1381.05 177.283 1381.05C175.986 1381.05 175.027 1381.68 174.65 1382.66H174.573V1381.18H173.812V1391ZM192.703 1391.2C195.132 1391.2 196.896 1389.07 196.896 1386.12C196.896 1383.18 195.125 1381.03 192.703 1381.03C190.274 1381.03 188.509 1383.17 188.509 1386.12C188.509 1389.07 190.274 1391.2 192.703 1391.2ZM192.703 1390.48C190.638 1390.48 189.283 1388.56 189.283 1386.12C189.283 1383.7 190.651 1381.76 192.703 1381.76C194.761 1381.76 196.122 1383.69 196.122 1386.12C196.122 1388.56 194.767 1390.48 192.703 1390.48ZM205.821 1383.3C205.348 1381.85 204.312 1381.03 202.65 1381.03C200.771 1381.03 199.422 1382.12 199.422 1383.71C199.422 1384.97 200.221 1385.86 201.826 1386.25L203.392 1386.63C204.561 1386.92 205.143 1387.55 205.143 1388.46C205.143 1389.65 204.069 1390.49 202.465 1390.49C201.014 1390.49 200.113 1389.81 199.831 1388.53L199.083 1388.72C199.422 1390.32 200.643 1391.2 202.471 1391.2C204.517 1391.2 205.936 1390.07 205.936 1388.44C205.936 1387.17 205.143 1386.3 203.596 1385.91L202.088 1385.53C200.809 1385.22 200.196 1384.61 200.196 1383.68C200.196 1382.53 201.206 1381.74 202.65 1381.74C203.993 1381.74 204.74 1382.42 205.098 1383.49L205.821 1383.3ZM212.106 1381.18H210.041V1378.83H209.268V1381.18H207.817V1381.88H209.268V1388.82C209.268 1390.31 210.425 1391.16 211.652 1391.16C212.048 1391.16 212.317 1391.09 212.559 1391L212.368 1390.29C212.176 1390.35 211.984 1390.41 211.703 1390.41C210.834 1390.41 210.041 1389.87 210.041 1388.68V1381.88H212.106V1381.18ZM220.84 1384.63C220.84 1382.92 222.029 1381.78 223.666 1381.78C225.296 1381.78 226.376 1382.88 226.376 1384.56V1391H227.156V1384.52C227.156 1382.38 225.788 1381.05 223.813 1381.05C222.413 1381.05 221.358 1381.72 220.898 1382.74H220.821V1381.18H220.061V1391H220.84V1384.63ZM234.225 1391.2C236.162 1391.2 237.351 1390.07 237.798 1389.08L237.089 1388.79C236.725 1389.52 235.823 1390.48 234.225 1390.48C231.994 1390.48 230.659 1388.68 230.627 1386.26H238.118V1385.78C238.118 1382.86 236.239 1381.03 234.04 1381.03C231.605 1381.03 229.853 1383.2 229.853 1386.14C229.853 1389.06 231.56 1391.2 234.225 1391.2ZM230.639 1385.55C230.793 1383.41 232.18 1381.76 234.04 1381.76C235.906 1381.76 237.338 1383.43 237.338 1385.55H230.639ZM244.274 1381.18H242.209V1378.83H241.436V1381.18H239.985V1381.88H241.436V1388.82C241.436 1390.31 242.593 1391.16 243.82 1391.16C244.216 1391.16 244.485 1391.09 244.727 1391L244.536 1390.29C244.344 1390.35 244.152 1390.41 243.871 1390.41C243.002 1390.41 242.209 1389.87 242.209 1388.68V1381.88H244.274V1381.18ZM249.307 1391H250.177L252.682 1382.45H252.765L255.271 1391H256.14L259.081 1381.18H258.263L255.731 1389.85H255.667L253.136 1381.18H252.324L249.787 1389.86H249.716L247.185 1381.18H246.367L249.307 1391ZM264.826 1391.2C267.255 1391.2 269.019 1389.07 269.019 1386.12C269.019 1383.18 267.248 1381.03 264.826 1381.03C262.397 1381.03 260.632 1383.17 260.632 1386.12C260.632 1389.07 262.397 1391.2 264.826 1391.2ZM264.826 1390.48C262.761 1390.48 261.406 1388.56 261.406 1386.12C261.406 1383.7 262.774 1381.76 264.826 1381.76C266.884 1381.76 268.245 1383.69 268.245 1386.12C268.245 1388.56 266.89 1390.48 264.826 1390.48ZM271.705 1391H272.485V1384.53C272.485 1382.95 273.667 1381.8 275.304 1381.8C275.508 1381.8 275.643 1381.83 275.745 1381.84V1381.05C275.623 1381.05 275.489 1381.05 275.349 1381.05C274.051 1381.05 272.958 1381.71 272.536 1382.72H272.466V1381.18H271.705V1391ZM277.84 1391H278.62V1387.07L279.815 1385.91L283.842 1391H284.839L280.384 1385.4L284.635 1381.18H283.618L278.709 1386.05H278.62V1377.91H277.84V1391ZM293.184 1383.3C292.711 1381.85 291.675 1381.03 290.013 1381.03C288.134 1381.03 286.786 1382.12 286.786 1383.71C286.786 1384.97 287.585 1385.86 289.189 1386.25L290.755 1386.63C291.925 1386.92 292.506 1387.55 292.506 1388.46C292.506 1389.65 291.433 1390.49 289.828 1390.49C288.377 1390.49 287.476 1389.81 287.195 1388.53L286.447 1388.72C286.786 1390.32 288.006 1391.2 289.835 1391.2C291.88 1391.2 293.299 1390.07 293.299 1388.44C293.299 1387.17 292.506 1386.3 290.96 1385.91L289.451 1385.53C288.173 1385.22 287.559 1384.61 287.559 1383.68C287.559 1382.53 288.569 1381.74 290.013 1381.74C291.356 1381.74 292.104 1382.42 292.462 1383.49L293.184 1383.3Z" fill="#7B7B7B"/>
<g clip-path="url(#clip1)">
<path d="M921.062 92.4998V91.9998H920.562H901.556V91.9941V91.9767V91.9592V91.9418V91.9244V91.9069V91.8895V91.8721V91.8546V91.8372V91.8197V91.8023V91.7849V91.7674V91.75V91.7326V91.7151V91.6977V91.6803V91.6628V91.6454V91.6279V91.6105V91.5931V91.5756V91.5582V91.5408V91.5233V91.5059V91.4884V91.471V91.4536V91.4361V91.4187V91.4013V91.3838V91.3664V91.349V91.3315V91.3141V91.2966V91.2792V91.2618V91.2443V91.2269V91.2095V91.192V91.1746V91.1572V91.1397V91.1223V91.1048V91.0874V91.07V91.0525V91.0351V91.0177V91.0002V90.9828V90.9654V90.9479V90.9305V90.913V90.8956V90.8782V90.8607V90.8433V90.8259V90.8084V90.791V90.7735V90.7561V90.7387V90.7212V90.7038V90.6864V90.6689V90.6515V90.6341V90.6166V90.5992V90.5817V90.5643V90.5469V90.5294V90.512V90.4946V90.4771V90.4597V90.4423V90.4248V90.4074V90.3899V90.3725V90.3551V90.3376V90.3202V90.3028V90.2853V90.2679V90.2505V90.233V90.2156V90.1981V90.1807V90.1633V90.1458V90.1284V90.111V90.0935V90.0761V90.0586V90.0412V90.0238V90.0063V89.9889V89.9715V89.954V89.9366V89.9192V89.9017V89.8843V89.8668V89.8494V89.832V89.8145V89.7971V89.7797V89.7622V89.7448V89.7274V89.7099V89.6925V89.675V89.6576V89.6402V89.6227V89.6053V89.5879V89.5704V89.553V89.5356V89.5181V89.5007V89.4832V89.4658V89.4484V89.4309V89.4135V89.3961V89.3786V89.3612V89.3437V89.3263V89.3089V89.2914V89.274V89.2566V89.2391V89.2217V89.2043V89.1868V89.1694V89.1519V89.1345V89.1171V89.0996V89.0822V89.0648V89.0473V89.0299V89.0125V88.995V88.9776V88.9601V88.9427V88.9253V88.9078V88.8904V88.873V88.8555V88.8381V88.8207V88.8032V88.7858V88.7683V88.7509V88.7335V88.716V88.6986V88.6812V88.6637V88.6463V88.6288V88.6114V88.594V88.5765V88.5591V88.5417V88.5242V88.5068V88.4894V88.4719V88.4545V88.437V88.4196V88.4022V88.3847V88.3673V88.3499V88.3324V88.315V88.2976V88.2801V88.2627V88.2452V88.2278V88.2104V88.1929V88.1755V88.1581V88.1406V88.1232V88.1058V88.0883V88.0709V88.0534V88.036V88.0186V88.0011V87.9837V87.9663V87.9488V87.9314V87.9139V87.8965V87.8791V87.8616V87.8442V87.8268V87.8093V87.7919V87.7745V87.757V87.7396V87.7221V87.7047V87.6873V87.6698V87.6524V87.635V87.6175V87.6001V87.5827V87.5652V87.5478V87.5303V87.5129V87.4955V87.478V87.4606V87.4432V87.4257V87.4083V87.3908V87.3734V87.356V87.3385V87.3211V87.3037V87.2862V87.2688V87.2514V87.2339V87.2165V87.199V87.1816V87.1642V87.1467V87.1293V87.1119V87.0944V87.077V87.0596V87.0421V87.0247V87.0072V86.9898V86.9724V86.9549V86.9375V86.9201V86.9026V86.8852V86.8678V86.8503V86.8329V86.8154V86.798V86.7806V86.7631V86.7457V86.7283V86.7108V86.6934V86.6759V86.6585V86.6411V86.6236V86.6062V86.5888V86.5713V86.5539V86.5365V86.519V86.5016V86.4841V86.4667V86.4493V86.4318V86.4144V86.397V86.3795V86.3621V86.3447V86.3272V86.3098V86.2923V86.2749V86.2575V86.24V86.2226V86.2052V86.1877V86.1703V86.1529V86.1354V86.118V86.1005V86.0831V86.0657V86.0482V86.0308V86.0134V85.9959V85.9785V85.961V85.9436V85.9262V85.9087V85.8913V85.8739V85.8564V85.839V85.8216V85.8041V85.7867V85.7692V85.7518V85.7344V85.7169V85.6995V85.6821V85.6646V85.6472V85.6298V85.6123V85.5949V85.5774V85.56V85.5426V85.5251V85.5077V85.4903V85.4728V85.4554V85.438V85.4205V85.4031V85.3856V85.3682V85.3508V85.3333V85.3159V85.2985V85.281V85.2636V85.2461V85.2287V85.2113V85.1938V85.1764V85.159V85.1415V85.1241V85.1067V85.0892V85.0718V85.0543V85.0369V85.0195V85.002V84.9846V84.9672V84.9497V84.9323V84.9149V84.8974V84.88V84.8625V84.8451V84.8277V84.8102V84.7928V84.7754V84.7579V84.7405V84.7231V84.7056V84.6882V84.6707V84.6533V84.6359V84.6184V84.601V84.5836V84.5661V84.5487V84.5312V84.5138V84.4964V84.4789V84.4615V84.4441V84.4266V84.4092V84.3918V84.3743V84.3569V84.3394V84.322V84.3046V84.2871V84.2697V84.2523V84.2348V84.2174V84.2V84.1825V84.1651V84.1476V84.1302V84.1128V84.0953V84.0779V84.0722H901.666H901.788H901.91H902.032H902.154H902.275H902.397H902.519H902.64H902.762H902.883H903.005H903.126H903.247H903.369H903.49H903.611H903.732H903.853H903.974H904.095H904.216H904.337H904.458H904.579H904.7H904.82H904.941H905.062H905.182H905.303H905.423H905.544H905.664H905.785H905.905H906.025H906.145H906.266H906.386H906.506H906.626H906.746H906.866H906.986H907.106H907.226H907.346H907.465H907.585H907.705H907.825H907.944H908.064H908.183H908.303H908.422H908.542H908.661H908.781H908.9H909.019H909.139H909.258H909.377H909.496H909.615H909.734H909.853H909.972H910.091H910.21H910.329H910.448H910.567H910.686H910.804H910.923H911.042H911.16H911.279H911.398H911.516H911.635H911.753H911.872H911.99H912.108H912.227H912.345H912.463H912.582H912.7H912.818H912.936H913.054H913.172H913.29H913.409H913.527H913.645H913.762H913.88H913.998H914.116H914.234H914.352H914.47H914.587H914.705H914.823H914.94H915.058H915.176H915.293H915.411H915.528H915.646H915.763H915.881H915.998H916.116H916.233H916.35H916.468H916.585H916.702H916.819H916.937H917.054H917.171H917.288H917.405H917.522H917.639H917.756H917.874H917.991H918.108H918.224H918.341H918.458H918.575H918.692H918.809H918.926H919.043H919.159H919.276H919.393H919.51H919.626H919.743H919.86H919.976H920.093H920.21H920.326H920.443H920.559H920.676H920.792H920.909H921.025H921.142H921.258H921.375H921.491H921.608H921.724H921.84H921.957H922.073H922.189H922.306H922.422H922.538H922.655H922.771H922.887H923.003H923.12H923.236H923.352H923.468H923.584H923.7H923.816H923.933H924.049H924.165H924.281H924.397H924.513H924.629H924.745H924.861H924.977H925.093H925.209H925.325H925.441H925.557H925.673H925.789H925.905H926.021H926.137H926.253H926.368H926.484H926.6H926.716H926.832H926.948H927.064H927.18H927.295H927.411H927.527H927.643H927.759H927.874H927.99H928.106H928.222H928.338H928.453H928.569H928.685H928.801H928.916H929.032H929.148H929.264H929.379H929.495H929.611H929.727H929.842H929.958H930.074H930.19H930.305H930.421H930.537H930.652H930.768H930.884H931H931.115H931.231H931.347H931.462H931.578H931.694H931.81H931.925H932.041H932.157H932.273H932.388H932.504H932.62H932.735H932.851H932.967H933.083H933.198H933.314H933.43H933.546H933.661H933.777H933.893H934.009H934.125H934.24H934.356H934.472H934.588H934.703H934.819H934.935H935.051H935.167H935.283H935.398H935.514H935.63H935.746H935.862H935.978H936.094H936.21H936.325H936.441H936.557H936.673H936.789H936.905H937.021H937.137H937.253H937.369H937.485H937.601H937.717H937.833H937.949H938.065H938.181H938.297H938.413H938.529H938.646H938.762H938.878H938.994H939.11H939.226H939.343H939.459H939.575H939.691H939.807H939.924H940.04H940.156H940.273H940.389H940.505H940.622H940.738H940.854H940.971H941.087H941.204H941.32H941.437H941.553H941.67H941.786H941.903H942.019H942.136H942.252H942.369H942.486H942.602H942.719H942.836H942.952H943.069H943.186H943.303H943.419H943.536H943.653H943.77H943.887H944.004H944.121H944.238H944.355H944.472H944.589H944.706H944.823H944.94H945.057H945.174H945.291H945.408H945.526H945.643H945.76H945.877H945.995H946.112H946.229H946.347H946.464H946.581H946.699H946.816H946.934H947.051H947.169H947.286H947.404H947.522H947.639H947.757H947.875H947.993H948.11H948.228H948.346H948.464H948.582H948.7H948.818H948.936H949.054H949.172H949.29H949.408H949.526H949.644H949.762H949.881H949.999H950.117H950.235H950.354H950.472H950.591H950.709H950.827H950.946H951.065H951.183H951.302H951.42H951.539H951.658H951.777H951.895H952.014H952.133H952.252H952.371H952.49H952.609H952.728H952.847H952.966H953.085H953.204H953.324H953.443H953.562H953.681H953.801H953.92H954.04H954.159H954.279H954.398H954.518H954.637H954.757H954.877H954.997H955.116H955.236H955.356H955.476H955.596H955.716H955.836H955.956H956.076H956.196H956.317H956.437H956.557H956.678H956.798H956.918H957.039H957.159H957.28H957.4H957.521H957.642H957.763H957.883H958.004H958.125H958.246H958.367H958.488H958.609H958.73H958.851H958.972H959.094H959.215H959.336H959.458H959.579H959.7H959.822H959.943H960.065H960.187H960.308H960.43H960.552H960.674H960.796H960.906V91.9998H953.914H953.414V92.4998V141.659H944.137V119.747V119.247H943.637H930.932H930.432V119.747V124.211C930.432 128.186 929.167 131.34 926.665 133.705C924.157 136.077 920.869 137.288 916.732 137.288C912.459 137.288 909.118 136.074 906.652 133.708L906.651 133.707C904.168 131.342 902.92 128.189 902.92 124.211C902.92 120.236 904.186 117.081 906.652 114.715C909.137 112.348 912.479 111.134 916.732 111.134H920.562H921.062V110.634V92.4998ZM919.92 127.84L919.92 127.84L919.924 127.836C920.612 126.984 920.972 125.937 921.047 124.711H921.081V124.211V119.785V119.285H920.581H916.751C915.382 119.285 914.247 119.737 913.427 120.659C912.593 121.575 912.215 122.805 912.215 124.248C912.215 125.597 912.67 126.796 913.558 127.782C914.443 128.765 915.506 129.286 916.732 129.286C918.047 129.286 919.127 128.8 919.92 127.84ZM930.932 91.9998H930.432V92.4998V110.634V111.134H930.932H943.637H944.137V110.634V92.4998V91.9998H943.637H930.932Z" stroke="#343434"/>
<path d="M967.805 114.714L967.806 114.716C970.289 117.081 971.537 120.234 971.537 124.211C971.537 128.189 970.289 131.342 967.806 133.707C965.321 136.074 961.978 137.288 957.725 137.288H953.895H953.395V137.788V160.354C950.271 160.372 947.148 160.405 944.025 160.439V137.788V128.675V124.211C944.025 120.236 945.291 117.083 947.792 114.717C950.3 112.346 953.589 111.134 957.725 111.134C961.998 111.134 965.339 112.349 967.805 114.714ZM953.395 128.675V129.175H953.895H957.725C959.094 129.175 960.229 128.723 961.049 127.8C961.884 126.883 962.262 125.652 962.242 124.171C962.242 122.823 961.786 121.626 960.9 120.64C960.015 119.657 958.951 119.136 957.725 119.136C956.41 119.136 955.33 119.622 954.537 120.582L954.537 120.582L954.534 120.586C953.754 121.551 953.395 122.769 953.395 124.211V128.675Z" fill="white" stroke="#7B7B7B"/>
</g>
<path d="M64.8504 93V76.1345H52.4742V81.182C52.4742 81.9909 52.1992 82.3953 51.6491 82.3953C51.3741 82.3953 51.0586 82.2174 50.7027 81.8615C50.3468 81.5056 49.9181 80.632 49.4166 79.2406C48.9151 77.8493 48.6643 76.6279 48.6643 75.5763C48.6643 74.7189 49.1173 74.2902 50.0233 74.2902H64.8504V63.9282H44.272V62.0839H73.8049V63.9282H67.0101V93H64.8504ZM93.0498 93V79.1921H81.1833V82.0071C81.1833 82.6542 80.9406 82.9778 80.4553 82.9778C79.9052 82.9778 79.1287 82.4762 78.1256 81.4732C77.4947 80.8423 76.9851 80.2275 76.5968 79.6289C76.2086 79.0142 76.0144 78.545 76.0144 78.2214C76.0144 77.639 76.3865 77.3478 77.1307 77.3478H79.0235V63.9282H72.3501V62.0839H102.004V63.9282H95.2096V93H93.0498ZM93.0498 63.9282H81.1833V77.3478H93.0498V63.9282ZM103.627 74.9211C103.238 74.3711 103.044 73.9666 103.044 73.7078C103.044 73.4489 103.133 73.2305 103.311 73.0526C103.505 72.8746 103.764 72.7856 104.088 72.7856C104.411 72.7856 104.702 72.9717 104.961 73.3438L108.601 78.4641C112.047 77.2022 113.77 74.5248 113.77 70.4317V63.9282H100.569V62.0839H123.21V63.9282H115.93V70.7472C115.93 73.3033 115.356 75.3822 114.207 76.9838C116.666 78.0677 118.955 78.6097 121.074 78.6097C123.21 78.6097 125.273 78.2295 127.262 77.4692L127.893 79.3377C125.774 80.1466 123.72 80.5511 121.73 80.5511C118.979 80.5511 116.027 79.8392 112.872 78.4156C111.999 79.1598 110.963 79.726 109.766 80.1143L118.065 91.7139L116.512 92.9029L103.627 74.9211ZM125.979 79.2406C125.979 76.911 126.739 75.0425 128.26 73.635C129.797 72.2113 132.021 71.4995 134.933 71.4995H141.849V63.9282H121.756V62.0839H150.804V63.9282H144.009V93H141.849V73.3438H135.734C133.162 73.3438 131.237 73.9019 129.959 75.0182C128.681 76.1345 128.042 77.6229 128.042 79.4833C128.042 81.3276 128.422 83.1881 129.182 85.0647C129.959 86.9252 131.415 89.3114 133.55 92.2235L131.73 93.0485C129.627 90.1689 128.139 87.637 127.265 85.453C126.408 83.269 125.979 81.1982 125.979 79.2406ZM144.706 62.8119H141.892L129.952 51.4307L131.432 49.9747L144.706 62.8119ZM156.063 89.1658C157.244 89.1658 157.835 89.8777 157.835 91.3013C157.835 92.725 157.244 93.4368 156.063 93.4368C154.899 93.4368 154.316 92.725 154.316 91.3013C154.316 89.8777 154.899 89.1658 156.063 89.1658ZM157.374 61.0647L156.743 84.7735H155.408L154.777 61.0647H157.374Z" fill="#BCBCBC"/>
<path d="M49.4148 118.455V149H51.2045V122.884H51.3835L62.4354 149H64.1953L75.2472 122.884H75.4261V149H77.2159V118.455H75.1875L63.4197 146.315H63.2109L51.4432 118.455H49.4148ZM85.4899 149H87.2946V126.091H85.4899V149ZM86.3997 122.034C87.2051 122.034 87.8613 121.393 87.8613 120.602C87.8613 119.812 87.2051 119.17 86.3997 119.17C85.5943 119.17 84.9231 119.812 84.9231 120.602C84.9231 121.393 85.5943 122.034 86.3997 122.034ZM96.7356 134.145C96.7356 130.148 99.5247 127.478 103.388 127.478C107.206 127.478 109.741 130.043 109.741 133.966V149H111.546V133.891C111.546 128.865 108.354 125.793 103.731 125.793C100.42 125.793 97.9885 127.329 96.9146 129.715H96.7356V118.455H94.916V149H96.7356V134.145ZM119.164 149H120.968V126.091H119.164V149ZM120.074 122.034C120.879 122.034 121.535 121.393 121.535 120.602C121.535 119.812 120.879 119.17 120.074 119.17C119.268 119.17 118.597 119.812 118.597 120.602C118.597 121.393 119.268 122.034 120.074 122.034ZM128.59 149H130.409V133.906C130.409 130.207 133.169 127.538 136.987 127.538C137.464 127.538 137.777 127.597 138.016 127.627V125.793C137.733 125.778 137.419 125.778 137.091 125.778C134.064 125.778 131.513 127.329 130.529 129.67H130.365V126.091H128.59V149Z" fill="#7B7B7B"/>
<path d="M178.625 128C177.745 123.004 173.569 118.037 166.738 118.037C159.117 118.037 153.807 124.256 153.807 133.727C153.807 143.198 159.117 149.418 166.738 149.418C173.569 149.418 177.745 144.406 178.625 139.455H176.716C175.926 143.616 172.242 147.628 166.738 147.628C160.713 147.628 155.642 142.781 155.642 133.727C155.642 124.763 160.713 119.827 166.738 119.827C172.242 119.827 175.926 123.884 176.716 128H178.625ZM186.97 134.145C186.97 130.148 189.759 127.478 193.622 127.478C197.44 127.478 199.976 130.043 199.976 133.966V149H201.78V133.891C201.78 128.865 198.589 125.793 193.965 125.793C190.654 125.793 188.223 127.329 187.149 129.715H186.97V118.455H185.15V149H186.97V134.145ZM215.379 149.492C219.018 149.492 221.583 147.434 222.777 144.869H222.911V149H224.73V132.996C224.73 127.985 221.002 125.748 216.93 125.748C213.395 125.748 210.084 127.344 208.772 130.64L210.487 131.281C211.382 129.014 213.708 127.418 216.975 127.418C220.674 127.418 222.911 129.551 222.911 132.877V133.832C222.911 135.592 220.346 135.771 216.855 136.188C210.74 136.934 208.115 138.873 208.115 142.691C208.115 147.046 211.426 149.492 215.379 149.492ZM215.558 147.807C212.351 147.807 209.935 145.883 209.935 142.751C209.935 139.917 212.023 138.396 217.034 137.799C219.272 137.545 221.956 137.128 222.911 136.337V139.708C222.911 144.362 219.853 147.807 215.558 147.807ZM240.458 126.091H235.641V120.602H233.836V126.091H230.45V127.717H233.836V143.914C233.836 147.389 236.536 149.373 239.399 149.373C240.324 149.373 240.95 149.209 241.517 149L241.07 147.344C240.622 147.494 240.175 147.613 239.518 147.613C237.49 147.613 235.641 146.36 235.641 143.586V127.717H240.458V126.091ZM261.883 140.871C261.883 144.958 258.841 147.523 255.261 147.523C251.592 147.523 249.027 144.943 249.027 141.125V126.091H247.207V141.2C247.207 146.211 250.399 149.298 254.888 149.298C258.154 149.298 260.66 147.643 261.734 145.286H261.883V149H263.703V126.091H261.883V140.871ZM271.242 149H273.062V133.906C273.062 130.207 275.821 127.538 279.639 127.538C280.116 127.538 280.43 127.597 280.668 127.627V125.793C280.385 125.778 280.072 125.778 279.744 125.778C276.716 125.778 274.165 127.329 273.181 129.67H273.017V126.091H271.242V149ZM303.003 126.091H301.049L293.771 146.658H293.622L286.343 126.091H284.39L292.667 149H294.725L303.003 126.091ZM316.803 149.477C321.322 149.477 324.096 146.837 325.14 144.526L323.485 143.854C322.635 145.555 320.532 147.792 316.803 147.792C311.598 147.792 308.481 143.586 308.406 137.948H325.886V136.815C325.886 130.013 321.501 125.748 316.371 125.748C310.688 125.748 306.601 130.804 306.601 137.65C306.601 144.481 310.584 149.477 316.803 149.477ZM308.436 136.293C308.794 131.296 312.03 127.448 316.371 127.448C320.726 127.448 324.067 131.326 324.067 136.293H308.436ZM340.01 149.477C343.933 149.477 346.319 146.957 347.408 144.004H347.632V149H349.392V118.455H347.587V131.207H347.408C346.349 128.254 343.948 125.748 340.025 125.748C334.522 125.748 330.883 130.7 330.883 137.605C330.883 144.54 334.477 149.477 340.01 149.477ZM340.175 147.792C335.461 147.792 332.687 143.347 332.687 137.59C332.687 131.833 335.461 127.448 340.175 127.448C344.828 127.448 347.602 131.744 347.602 137.59C347.602 143.452 344.828 147.792 340.175 147.792ZM357.67 149H359.474V126.091H357.67V149ZM358.579 122.034C359.385 122.034 360.041 121.393 360.041 120.602C360.041 119.812 359.385 119.17 358.579 119.17C357.774 119.17 357.103 119.812 357.103 120.602C357.103 121.393 357.774 122.034 358.579 122.034Z" fill="#343434"/>
<path d="M47.7188 187.636C47.7188 191.497 48.6903 195.196 50.4801 198.545H51.4517C49.7898 195.452 48.7756 191.446 48.7756 187.636C48.7756 183.844 49.7812 179.83 51.4517 176.727H50.4801C48.6903 180.06 47.7188 183.75 47.7188 187.636ZM162.232 187.636C162.232 183.776 161.261 180.077 159.471 176.727H158.499C160.161 179.821 161.175 183.827 161.175 187.636C161.175 191.429 160.17 195.443 158.499 198.545H159.471C161.261 195.213 162.232 191.523 162.232 187.636Z" fill="#BCBCBC"/>
<path d="M55.0589 199.909H56.0902V192.145H56.1925C56.7976 193.841 58.1953 195.273 60.4197 195.273C63.5561 195.273 65.6357 192.443 65.6357 188.489C65.6357 184.534 63.5732 181.713 60.4112 181.713C58.1527 181.713 56.8146 183.153 56.1925 184.832H56.0732V181.909H55.0589V199.909ZM56.0817 188.48C56.0817 185.139 57.6584 182.685 60.3345 182.685C63.0362 182.685 64.6044 185.19 64.6044 188.48C64.6044 191.77 63.0107 194.31 60.3345 194.31C57.6839 194.31 56.0817 191.83 56.0817 188.48ZM70.2741 177.545H69.2344V195H70.2741V177.545ZM74.6293 195H75.6605V181.909H74.6293V195ZM75.1491 179.591C75.6094 179.591 75.9844 179.224 75.9844 178.773C75.9844 178.321 75.6094 177.955 75.1491 177.955C74.6889 177.955 74.3054 178.321 74.3054 178.773C74.3054 179.224 74.6889 179.591 75.1491 179.591ZM80.3821 195H81.3963V192.145H81.5156C82.1378 193.832 83.5014 195.273 85.7429 195.273C88.8963 195.273 90.9588 192.452 90.9588 188.489C90.9588 184.543 88.8793 181.713 85.7344 181.713C83.4929 181.713 82.1207 183.145 81.5156 184.832H81.4134V177.545H80.3821V195ZM81.4048 188.48C81.4048 185.139 82.9986 182.685 85.6577 182.685C88.3509 182.685 89.9276 185.19 89.9276 188.48C89.9276 191.77 88.3509 194.31 85.6577 194.31C82.9986 194.31 81.4048 191.83 81.4048 188.48ZM94.598 195H95.6293V181.909H94.598V195ZM95.1179 179.591C95.5781 179.591 95.9531 179.224 95.9531 178.773C95.9531 178.321 95.5781 177.955 95.1179 177.955C94.6577 177.955 94.2741 178.321 94.2741 178.773C94.2741 179.224 94.6577 179.591 95.1179 179.591ZM104.612 181.909H101.859V178.773H100.828V181.909H98.8935V182.838H100.828V192.094C100.828 194.08 102.371 195.213 104.007 195.213C104.536 195.213 104.893 195.119 105.217 195L104.962 194.054C104.706 194.139 104.45 194.207 104.075 194.207C102.916 194.207 101.859 193.491 101.859 191.906V182.838H104.612V181.909ZM109.79 186.511C109.79 184.227 111.384 182.702 113.591 182.702C115.773 182.702 117.222 184.168 117.222 186.409V195H118.253V186.366C118.253 183.494 116.429 181.739 113.787 181.739C111.895 181.739 110.506 182.616 109.892 183.98H109.79V177.545H108.75V195H109.79V186.511ZM127.66 195.273C130.242 195.273 131.827 193.764 132.424 192.443L131.478 192.06C130.992 193.031 129.79 194.31 127.66 194.31C124.685 194.31 122.904 191.906 122.862 188.685H132.85V188.037C132.85 184.151 130.344 181.713 127.413 181.713C124.165 181.713 121.83 184.602 121.83 188.514C121.83 192.418 124.106 195.273 127.66 195.273ZM122.879 187.739C123.083 184.884 124.933 182.685 127.413 182.685C129.901 182.685 131.81 184.901 131.81 187.739H122.879ZM136.43 195H137.469V186.375C137.469 184.261 139.046 182.736 141.228 182.736C141.501 182.736 141.68 182.77 141.816 182.787V181.739C141.654 181.73 141.475 181.73 141.288 181.73C139.558 181.73 138.1 182.616 137.538 183.955H137.444V181.909H136.43V195ZM149.74 195.239C152.902 195.239 155.322 193.151 155.331 190.457C155.322 188.335 153.805 186.409 151.751 185.974V185.898C153.524 185.344 154.717 183.69 154.726 181.807C154.717 179.259 152.51 177.307 149.74 177.307C146.928 177.307 144.746 179.267 144.746 181.807C144.746 183.707 145.964 185.344 147.729 185.898V185.974C145.658 186.426 144.141 188.335 144.149 190.457C144.141 193.151 146.561 195.239 149.74 195.239ZM149.74 194.25C147.124 194.25 145.197 192.571 145.206 190.398C145.197 188.199 147.175 186.452 149.74 186.452C152.288 186.452 154.266 188.199 154.274 190.398C154.266 192.571 152.339 194.25 149.74 194.25ZM149.74 185.531C147.524 185.531 145.786 183.903 145.794 181.849C145.786 179.804 147.507 178.287 149.74 178.287C151.956 178.287 153.678 179.804 153.678 181.849C153.678 183.903 151.939 185.531 149.74 185.531Z" fill="black"/>
<path d="M49.2614 1343.68C49.2614 1340.64 51.3864 1338.6 54.3295 1338.6C57.2386 1338.6 59.1705 1340.56 59.1705 1343.55V1355H60.5455V1343.49C60.5455 1339.66 58.1136 1337.32 54.5909 1337.32C52.0682 1337.32 50.2159 1338.49 49.3977 1340.31H49.2614V1331.73H47.875V1355H49.2614V1343.68ZM72.4517 1337.55H68.7812V1333.36H67.4062V1337.55H64.8267V1338.78H67.4062V1351.12C67.4062 1353.77 69.4631 1355.28 71.6449 1355.28C72.3494 1355.28 72.8267 1355.16 73.2585 1355L72.9176 1353.74C72.5767 1353.85 72.2358 1353.94 71.7358 1353.94C70.1903 1353.94 68.7812 1352.99 68.7812 1350.88V1338.78H72.4517V1337.55ZM83.7642 1337.55H80.0938V1333.36H78.7188V1337.55H76.1392V1338.78H78.7188V1351.12C78.7188 1353.77 80.7756 1355.28 82.9574 1355.28C83.6619 1355.28 84.1392 1355.16 84.571 1355L84.2301 1353.74C83.8892 1353.85 83.5483 1353.94 83.0483 1353.94C81.5028 1353.94 80.0938 1352.99 80.0938 1350.88V1338.78H83.7642V1337.55ZM88.8494 1361.55H90.2244V1351.19H90.3608C91.1676 1353.45 93.0312 1355.36 95.9972 1355.36C100.179 1355.36 102.952 1351.59 102.952 1346.32C102.952 1341.05 100.202 1337.28 95.9858 1337.28C92.9744 1337.28 91.1903 1339.2 90.3608 1341.44H90.2017V1337.55H88.8494V1361.55ZM90.2131 1346.31C90.2131 1341.85 92.3153 1338.58 95.8835 1338.58C99.4858 1338.58 101.577 1341.92 101.577 1346.31C101.577 1350.69 99.4517 1354.08 95.8835 1354.08C92.3494 1354.08 90.2131 1350.77 90.2131 1346.31ZM118.841 1341.31C118 1338.74 116.159 1337.28 113.205 1337.28C109.864 1337.28 107.466 1339.22 107.466 1342.03C107.466 1344.28 108.886 1345.86 111.739 1346.56L114.523 1347.24C116.602 1347.75 117.636 1348.88 117.636 1350.49C117.636 1352.6 115.727 1354.09 112.875 1354.09C110.295 1354.09 108.693 1352.89 108.193 1350.6L106.864 1350.94C107.466 1353.78 109.636 1355.36 112.886 1355.36C116.523 1355.36 119.045 1353.34 119.045 1350.44C119.045 1348.19 117.636 1346.64 114.886 1345.95L112.205 1345.28C109.932 1344.73 108.841 1343.65 108.841 1341.99C108.841 1339.94 110.636 1338.55 113.205 1338.55C115.591 1338.55 116.92 1339.74 117.557 1341.65L118.841 1341.31ZM125.139 1341.7C125.81 1341.7 126.366 1341.16 126.366 1340.48C126.366 1339.81 125.81 1339.25 125.139 1339.25C124.457 1339.25 123.912 1339.81 123.912 1340.48C123.912 1341.16 124.457 1341.7 125.139 1341.7ZM125.139 1353.93C125.81 1353.93 126.366 1353.39 126.366 1352.7C126.366 1352.03 125.81 1351.48 125.139 1351.48C124.457 1351.48 123.912 1352.03 123.912 1352.7C123.912 1353.39 124.457 1353.93 125.139 1353.93ZM139.085 1330.64H137.756L130.256 1358.5H131.585L139.085 1330.64ZM149.773 1330.64H148.443L140.943 1358.5H142.273L149.773 1330.64Z" fill="#BCBCBC"/>
<path d="M153.358 1355H155.381V1343.82C155.381 1341.1 157.188 1339.17 159.608 1339.17C161.994 1339.17 163.381 1340.76 163.381 1343.12V1355H165.449V1343.51C165.449 1341 166.949 1339.17 169.608 1339.17C171.915 1339.17 173.449 1340.56 173.449 1343.31V1355H175.472V1343.31C175.472 1339.4 173.46 1337.32 170.222 1337.32C167.676 1337.32 165.835 1338.56 165.051 1340.49H164.903C164.131 1338.51 162.597 1337.32 160.188 1337.32C157.903 1337.32 156.199 1338.42 155.506 1340.23H155.324V1337.55H153.358V1355ZM180.849 1355H182.884V1337.55H180.849V1355ZM181.884 1334.55C182.713 1334.55 183.406 1333.89 183.406 1333.09C183.406 1332.3 182.713 1331.64 181.884 1331.64C181.054 1331.64 180.372 1332.3 180.372 1333.09C180.372 1333.89 181.054 1334.55 181.884 1334.55ZM190.256 1344.09C190.256 1341.05 192.301 1339.17 195.097 1339.17C197.801 1339.17 199.528 1340.94 199.528 1343.82V1355H201.562V1343.69C201.562 1339.53 199.153 1337.32 195.608 1337.32C192.972 1337.32 191.256 1338.48 190.438 1340.28H190.256V1331.73H188.233V1355H190.256V1344.09ZM206.912 1355H208.946V1337.55H206.912V1355ZM207.946 1334.55C208.776 1334.55 209.469 1333.89 209.469 1333.09C209.469 1332.3 208.776 1331.64 207.946 1331.64C207.116 1331.64 206.435 1332.3 206.435 1333.09C206.435 1333.89 207.116 1334.55 207.946 1334.55ZM214.295 1355H216.318V1343.73C216.318 1341.14 218.307 1339.26 221.034 1339.26C221.568 1339.26 222.068 1339.35 222.25 1339.38V1337.32C221.977 1337.31 221.511 1337.28 221.182 1337.28C218.989 1337.28 217.114 1338.47 216.409 1340.23H216.261V1337.55H214.295V1355ZM225.315 1355.17C226.224 1355.17 226.952 1354.43 226.952 1353.53C226.952 1352.62 226.224 1351.9 225.315 1351.9C224.418 1351.9 223.679 1352.62 223.679 1353.53C223.679 1354.43 224.418 1355.17 225.315 1355.17ZM239.114 1355.36C242.75 1355.36 245.307 1353.07 245.773 1349.91H243.727C243.261 1352.14 241.432 1353.51 239.114 1353.51C235.693 1353.51 233.432 1350.53 233.432 1346.28C233.432 1342.06 235.761 1339.15 239.114 1339.15C241.602 1339.15 243.284 1340.75 243.716 1342.73H245.761C245.284 1339.49 242.58 1337.31 239.08 1337.31C234.511 1337.31 231.398 1341.1 231.398 1346.35C231.398 1351.56 234.42 1355.36 239.114 1355.36ZM252.131 1344.09C252.131 1341.05 254.176 1339.17 256.972 1339.17C259.676 1339.17 261.403 1340.94 261.403 1343.82V1355H263.438V1343.69C263.438 1339.53 261.028 1337.32 257.483 1337.32C254.847 1337.32 253.131 1338.48 252.312 1340.28H252.131V1331.73H250.108V1355H252.131V1344.09Z" fill="#333333"/>
<path d="M787.065 1346H787.883C787.512 1343.91 785.71 1341.73 782.75 1341.73C779.464 1341.73 777.227 1344.39 777.227 1348.45C777.227 1352.51 779.445 1355.18 782.82 1355.18C785.818 1355.18 787.972 1353.07 787.972 1349.61V1348.86H783.025V1349.61H787.192C787.173 1352.61 785.352 1354.41 782.82 1354.41C779.944 1354.41 778.013 1352.08 778.013 1348.45C778.013 1344.8 779.969 1342.5 782.75 1342.5C785.173 1342.5 786.668 1344.24 787.065 1346ZM794.591 1355.2C797.02 1355.2 798.784 1353.07 798.784 1350.12C798.784 1347.18 797.014 1345.03 794.591 1345.03C792.162 1345.03 790.398 1347.17 790.398 1350.12C790.398 1353.07 792.162 1355.2 794.591 1355.2ZM794.591 1354.48C792.527 1354.48 791.172 1352.56 791.172 1350.12C791.172 1347.7 792.539 1345.76 794.591 1345.76C796.65 1345.76 798.011 1347.69 798.011 1350.12C798.011 1352.56 796.656 1354.48 794.591 1354.48ZM805.121 1355.2C807.55 1355.2 809.314 1353.07 809.314 1350.12C809.314 1347.18 807.543 1345.03 805.121 1345.03C802.692 1345.03 800.927 1347.17 800.927 1350.12C800.927 1353.07 802.692 1355.2 805.121 1355.2ZM805.121 1354.48C803.056 1354.48 801.701 1352.56 801.701 1350.12C801.701 1347.7 803.069 1345.76 805.121 1345.76C807.179 1345.76 808.54 1347.69 808.54 1350.12C808.54 1352.56 807.185 1354.48 805.121 1354.48ZM815.369 1355.2C817.05 1355.2 818.072 1354.12 818.539 1352.86H818.635V1355H819.389V1341.91H818.616V1347.37H818.539C818.085 1346.11 817.056 1345.03 815.375 1345.03C813.016 1345.03 811.457 1347.16 811.457 1350.12C811.457 1353.09 812.997 1355.2 815.369 1355.2ZM815.439 1354.48C813.419 1354.48 812.23 1352.58 812.23 1350.11C812.23 1347.64 813.419 1345.76 815.439 1345.76C817.433 1345.76 818.622 1347.6 818.622 1350.11C818.622 1352.62 817.433 1354.48 815.439 1354.48ZM831.432 1345.18H829.367V1342.83H828.594V1345.18H827.143V1345.88H828.594V1352.82C828.594 1354.31 829.751 1355.16 830.978 1355.16C831.374 1355.16 831.643 1355.09 831.886 1355L831.694 1354.29C831.502 1354.35 831.31 1354.41 831.029 1354.41C830.16 1354.41 829.367 1353.87 829.367 1352.68V1345.88H831.432V1345.18ZM834.363 1355H835.136V1345.18H834.363V1355ZM834.752 1343.44C835.098 1343.44 835.379 1343.17 835.379 1342.83C835.379 1342.49 835.098 1342.22 834.752 1342.22C834.407 1342.22 834.12 1342.49 834.12 1342.83C834.12 1343.17 834.407 1343.44 834.752 1343.44ZM838.402 1355H839.182V1348.56C839.182 1346.93 840.16 1345.78 841.713 1345.78C843.254 1345.78 844.015 1346.83 844.015 1348.36V1355H844.794V1348.47C844.794 1346.91 845.689 1345.78 847.313 1345.78C848.828 1345.78 849.627 1346.77 849.627 1348.41V1355H850.407V1348.41C850.407 1346.33 849.377 1345.05 847.479 1345.05C846.022 1345.05 844.993 1345.8 844.609 1346.95H844.539C844.155 1345.79 843.292 1345.05 841.873 1345.05C840.576 1345.05 839.617 1345.68 839.24 1346.66H839.163V1345.18H838.402V1355ZM857.471 1355.2C859.408 1355.2 860.597 1354.07 861.045 1353.08L860.335 1352.79C859.971 1353.52 859.069 1354.48 857.471 1354.48C855.241 1354.48 853.905 1352.68 853.873 1350.26H861.364V1349.78C861.364 1346.86 859.485 1345.03 857.286 1345.03C854.851 1345.03 853.099 1347.2 853.099 1350.14C853.099 1353.06 854.806 1355.2 857.471 1355.2ZM853.885 1349.55C854.039 1347.41 855.426 1345.76 857.286 1345.76C859.153 1345.76 860.584 1347.43 860.584 1349.55H853.885ZM870.287 1347.3C869.814 1345.85 868.779 1345.03 867.117 1345.03C865.238 1345.03 863.889 1346.12 863.889 1347.71C863.889 1348.97 864.688 1349.86 866.292 1350.25L867.858 1350.63C869.028 1350.92 869.61 1351.55 869.61 1352.46C869.61 1353.65 868.536 1354.49 866.932 1354.49C865.481 1354.49 864.579 1353.81 864.298 1352.53L863.55 1352.72C863.889 1354.32 865.11 1355.2 866.938 1355.2C868.983 1355.2 870.403 1354.07 870.403 1352.44C870.403 1351.17 869.61 1350.3 868.063 1349.91L866.555 1349.53C865.276 1349.22 864.662 1348.61 864.662 1347.68C864.662 1346.53 865.672 1345.74 867.117 1345.74C868.459 1345.74 869.207 1346.42 869.565 1347.49L870.287 1347.3ZM874.636 1353.21H873.805L873.69 1353.93C873.428 1355.65 873.102 1357.28 872.923 1358.2H873.53C873.83 1357.26 874.29 1355.2 874.521 1353.88L874.636 1353.21ZM886.469 1358.89C888.764 1358.89 890.317 1357.69 890.317 1355.23V1345.18H889.563V1347.37H889.473C889.007 1346.11 888.003 1345.03 886.303 1345.03C883.925 1345.03 882.384 1347.14 882.384 1350.09C882.384 1353.04 883.97 1354.95 886.296 1354.95C887.907 1354.95 889.013 1354.03 889.467 1352.76H889.544V1355.2C889.544 1357.21 888.361 1358.17 886.469 1358.17C884.89 1358.17 883.893 1357.49 883.465 1356.53L882.813 1356.92C883.35 1358.13 884.634 1358.89 886.469 1358.89ZM886.367 1354.23C884.353 1354.23 883.158 1352.54 883.158 1350.08C883.158 1347.64 884.334 1345.76 886.367 1345.76C888.367 1345.76 889.55 1347.6 889.55 1350.08C889.55 1352.64 888.335 1354.23 886.367 1354.23ZM897.248 1355.2C899.676 1355.2 901.441 1353.07 901.441 1350.12C901.441 1347.18 899.67 1345.03 897.248 1345.03C894.819 1345.03 893.054 1347.17 893.054 1350.12C893.054 1353.07 894.819 1355.2 897.248 1355.2ZM897.248 1354.48C895.183 1354.48 893.828 1352.56 893.828 1350.12C893.828 1347.7 895.196 1345.76 897.248 1345.76C899.306 1345.76 900.667 1347.69 900.667 1350.12C900.667 1352.56 899.312 1354.48 897.248 1354.48ZM907.777 1355.2C910.206 1355.2 911.97 1353.07 911.97 1350.12C911.97 1347.18 910.199 1345.03 907.777 1345.03C905.348 1345.03 903.584 1347.17 903.584 1350.12C903.584 1353.07 905.348 1355.2 907.777 1355.2ZM907.777 1354.48C905.712 1354.48 904.357 1352.56 904.357 1350.12C904.357 1347.7 905.725 1345.76 907.777 1345.76C909.835 1345.76 911.197 1347.69 911.197 1350.12C911.197 1352.56 909.841 1354.48 907.777 1354.48ZM918.025 1355.2C919.706 1355.2 920.729 1354.12 921.195 1352.86H921.291V1355H922.045V1341.91H921.272V1347.37H921.195C920.741 1346.11 919.712 1345.03 918.031 1345.03C915.673 1345.03 914.113 1347.16 914.113 1350.12C914.113 1353.09 915.653 1355.2 918.025 1355.2ZM918.095 1354.48C916.075 1354.48 914.886 1352.58 914.886 1350.11C914.886 1347.64 916.075 1345.76 918.095 1345.76C920.089 1345.76 921.278 1347.6 921.278 1350.11C921.278 1352.62 920.089 1354.48 918.095 1354.48ZM934.088 1345.18H932.023V1342.83H931.25V1345.18H929.799V1345.88H931.25V1352.82C931.25 1354.31 932.407 1355.16 933.634 1355.16C934.031 1355.16 934.299 1355.09 934.542 1355L934.35 1354.29C934.158 1354.35 933.967 1354.41 933.685 1354.41C932.816 1354.41 932.023 1353.87 932.023 1352.68V1345.88H934.088V1345.18ZM937.019 1355H937.792V1345.18H937.019V1355ZM937.409 1343.44C937.754 1343.44 938.035 1343.17 938.035 1342.83C938.035 1342.49 937.754 1342.22 937.409 1342.22C937.064 1342.22 936.776 1342.49 936.776 1342.83C936.776 1343.17 937.064 1343.44 937.409 1343.44ZM941.059 1355H941.838V1348.56C941.838 1346.93 942.816 1345.78 944.37 1345.78C945.91 1345.78 946.671 1346.83 946.671 1348.36V1355H947.451V1348.47C947.451 1346.91 948.346 1345.78 949.969 1345.78C951.484 1345.78 952.283 1346.77 952.283 1348.41V1355H953.063V1348.41C953.063 1346.33 952.034 1345.05 950.135 1345.05C948.678 1345.05 947.649 1345.8 947.265 1346.95H947.195C946.811 1345.79 945.949 1345.05 944.529 1345.05C943.232 1345.05 942.273 1345.68 941.896 1346.66H941.819V1345.18H941.059V1355ZM960.128 1355.2C962.064 1355.2 963.253 1354.07 963.701 1353.08L962.991 1352.79C962.627 1353.52 961.726 1354.48 960.128 1354.48C957.897 1354.48 956.561 1352.68 956.529 1350.26H964.02V1349.78C964.02 1346.86 962.141 1345.03 959.942 1345.03C957.507 1345.03 955.756 1347.2 955.756 1350.14C955.756 1353.06 957.462 1355.2 960.128 1355.2ZM956.542 1349.55C956.695 1347.41 958.082 1345.76 959.942 1345.76C961.809 1345.76 963.241 1347.43 963.241 1349.55H956.542ZM972.944 1347.3C972.471 1345.85 971.435 1345.03 969.773 1345.03C967.894 1345.03 966.545 1346.12 966.545 1347.71C966.545 1348.97 967.344 1349.86 968.949 1350.25L970.515 1350.63C971.684 1350.92 972.266 1351.55 972.266 1352.46C972.266 1353.65 971.192 1354.49 969.588 1354.49C968.137 1354.49 967.236 1353.81 966.954 1352.53L966.206 1352.72C966.545 1354.32 967.766 1355.2 969.594 1355.2C971.64 1355.2 973.059 1354.07 973.059 1352.44C973.059 1351.17 972.266 1350.3 970.719 1349.91L969.211 1349.53C967.932 1349.22 967.319 1348.61 967.319 1347.68C967.319 1346.53 968.329 1345.74 969.773 1345.74C971.116 1345.74 971.863 1346.42 972.221 1347.49L972.944 1347.3ZM976.487 1355.08C976.864 1355.08 977.177 1354.78 977.177 1354.39C977.177 1354.02 976.864 1353.7 976.487 1353.7C976.103 1353.7 975.796 1354.02 975.796 1354.39C975.796 1354.78 976.103 1355.08 976.487 1355.08Z" fill="#E5E5E5"/>
</g>
<rect x="0.5" y="0.5" width="1023" height="1439" stroke="black"/>
<defs>
<clipPath id="clip0">
<rect x="45" y="45" width="934" height="1350" fill="white"/>
</clipPath>
<clipPath id="clip1">
<rect width="71" height="77" fill="white" transform="translate(901 84)"/>
</clipPath>
</defs>
</svg>
